<svg xmlns="http://www.w3.org/2000/svg" width="920" height="620" viewBox="0 0 920 620" role="img" aria-labelledby="title desc">
  <title id="title">PDF layout preserved in Word</title>
  <desc id="desc">A PDF page layout moving into editable Word blocks with headings, text, and image areas aligned.</desc>
  <rect width="920" height="620" rx="34" fill="#fffaf2"/>
  <rect x="90" y="80" width="285" height="430" rx="22" fill="#ffffff" stroke="#ffd4c4" stroke-width="3"/>
  <rect x="126" y="126" width="96" height="28" rx="8" fill="#ff4f5e"/>
  <rect x="126" y="190" width="210" height="14" rx="7" fill="#ffc4ba"/>
  <rect x="126" y="222" width="166" height="14" rx="7" fill="#ffe0dc"/>
  <rect x="126" y="254" width="198" height="14" rx="7" fill="#ffe0dc"/>
  <rect x="126" y="306" width="210" height="112" rx="16" fill="#ffece8"/>
  <path d="M418 292h84l-24-24 18-18 56 56-56 56-18-18 24-24h-84z" fill="#31c48d"/>
  <rect x="584" y="80" width="246" height="430" rx="22" fill="#ffffff" stroke="#cfe8dd" stroke-width="3"/>
  <rect x="620" y="126" width="96" height="28" rx="8" fill="#31c48d"/>
  <rect x="620" y="190" width="172" height="14" rx="7" fill="#a9e8cf"/>
  <rect x="620" y="222" width="130" height="14" rx="7" fill="#d5f4e6"/>
  <rect x="620" y="254" width="156" height="14" rx="7" fill="#d5f4e6"/>
  <rect x="620" y="306" width="172" height="112" rx="16" fill="#e5f8ef"/>
  <text x="112" y="558" fill="#202635" font-family="Arial, sans-serif" font-size="24" font-weight="700">Keep structure readable after conversion</text>
</svg>
