<svg xmlns="http://www.w3.org/2000/svg" width="920" height="620" viewBox="0 0 920 620" role="img" aria-labelledby="title desc">
  <title id="title">Responsive PDF to Word blog layout</title>
  <desc id="desc">Desktop, tablet, and phone screens showing the same PDF to Word workflow aligned for different devices.</desc>
  <rect width="920" height="620" rx="34" fill="#eef9ff"/>
  <rect x="80" y="120" width="470" height="310" rx="24" fill="#ffffff" stroke="#c4dcff" stroke-width="3"/>
  <rect x="116" y="160" width="190" height="24" rx="8" fill="#2f76ee"/>
  <rect x="116" y="220" width="360" height="12" rx="6" fill="#bed2ff"/>
  <rect x="116" y="250" width="306" height="12" rx="6" fill="#d8e5ff"/>
  <rect x="116" y="280" width="334" height="12" rx="6" fill="#d8e5ff"/>
  <rect x="116" y="330" width="170" height="48" rx="16" fill="#14213d"/>
  <rect x="590" y="160" width="156" height="250" rx="22" fill="#ffffff" stroke="#cfe8dd" stroke-width="3"/>
  <rect x="620" y="204" width="96" height="16" rx="8" fill="#31c48d"/>
  <rect x="620" y="252" width="88" height="10" rx="5" fill="#bfeeda"/>
  <rect x="620" y="278" width="72" height="10" rx="5" fill="#d8f6e7"/>
  <rect x="772" y="218" width="78" height="154" rx="18" fill="#ffffff" stroke="#ffd2c8" stroke-width="3"/>
  <rect x="792" y="252" width="38" height="10" rx="5" fill="#ff746f"/>
  <rect x="792" y="284" width="34" height="8" rx="4" fill="#ffd2c8"/>
  <rect x="792" y="306" width="30" height="8" rx="4" fill="#ffe2dc"/>
  <text x="112" y="492" fill="#202635" font-family="Arial, sans-serif" font-size="26" font-weight="700">Aligned for desktop, tablet, and mobile</text>
</svg>
